<svg xmlns:xlink="http://www.w3.org/1999/xlink" xmlns="http://www.w3.org/2000/svg" width="24" height="24" viewBox="0 0 24 24">
  <g fill="none" fill-rule="evenodd" transform="translate(1 1)">
    <rect width="21" height="22.048" x="1" fill="#FFF"/>
    <path fill="#006FCF" d="M14.1444572,10.6403631 L14.1449436,10.6414631 L12.2264321,10.6414631 L11.7118794,9.41069216 L8.92180599,9.41069216 L8.40688663,10.6414631 L6.53494147,10.6414631 L9.26427075,4.49543058 L11.426981,4.49543058 L14.1193993,10.5837007 L14.1193993,4.49445281 L16.7507069,4.5034972 L18.1046772,8.28185399 L19.4674474,4.49445281 L21.9998778,4.49445281 L21.9998778,10.6403631 L20.3702979,10.6547853 L20.3702979,6.43313093 L18.8320176,10.6403631 L17.3445814,10.6403631 L15.7744013,6.41870878 L15.7744013,10.6403631 L14.1444572,10.6403631 Z M14.1223327,11.5034916 L16.3300204,11.5034916 L18.093555,13.4530475 L19.8621008,11.5034916 L21.9998778,11.5034916 L21.9998778,11.5518914 L19.1753379,14.5754079 L21.9998778,17.5672691 L21.9998778,17.6545353 L19.8405898,17.6545353 L18.0457664,15.685424 L16.2693985,17.6545353 L14.1223327,17.6545353 L8.90665052,17.6545353 L8.90665052,11.5033694 L14.1223327,11.5033694 Z M14.1223327,11.5313306 L14.1223327,12.920406 L10.5953856,12.920406 L10.5953856,13.8822895 L14.0382442,13.8822895 L14.0382442,15.2757374 L10.5953856,15.2757374 L10.5953856,16.2205099 L14.1223327,16.2205099 L14.1223327,17.6267601 L16.9823168,14.5754079 L14.1223327,11.5313306 Z M7.96957795,11.5219471 L7.96957795,18.5187638 L16.6685741,18.5372192 L18.0347665,17.0131166 L19.4107366,18.5314748 L21.9998778,18.5314748 L21.9998778,16.3077761 L20.3782423,14.558908 L21.9998778,12.8259287 L21.9998778,11.5219471 L21.9998778,3.63902423 L18.8116066,3.63902423 L18.0891551,5.65983522 L17.3691479,3.63902423 L13.1938156,3.63902423 L13.1938156,6.33633146 L12.0059444,3.63902423 L8.62395209,3.63902423 L5.15041583,11.5219471 L7.96957795,11.5219471 Z M2.27373675e-13,22 L2.27373675e-13,2.27373675e-13 L22,2.27373675e-13 L22,22 L2.27373675e-13,22 Z M9.4988139,8.03142205 L11.1352381,8.03142205 L10.3173316,6.07489958 L9.4988139,8.03142205 Z"/>
  </g>
</svg>