<svg xmlns:xlink="http://www.w3.org/1999/xlink" xmlns="http://www.w3.org/2000/svg" width="44" height="24" viewBox="0 0 44 24">
  <defs>
    <linearGradient id="discover-loose-a" x1="50%" x2="50%" y1="0%" y2="100%">
      <stop offset="0%" stop-color="#E0481E"/>
      <stop offset="100%" stop-color="#F59314"/>
    </linearGradient>
  </defs>
  <g fill="none" fill-rule="evenodd" transform="matrix(1 0 0 -1 .146 16.672)">
    <g fill="#201D1C" fill-rule="nonzero" transform="translate(.049 .208)">
      <path d="M3.50414834,2.00757486 C3.08656893,1.60622611 2.54412809,1.43112139 1.68540494,1.43112139 L1.3287263,1.43112139 L1.3287263,6.22673639 L1.68540494,6.22673639 C2.54412809,6.22673639 3.0652178,6.06318931 3.50414834,5.64023167 C3.96377118,5.20459958 4.24028669,4.5296075 4.24028669,3.83485056 C4.24028669,3.13869111 3.96377118,2.44302514 3.50414834,2.00757486 Z M1.95162798,7.45545625 L0.00076254055,7.45545625 L0.00076254055,0.203414444 L1.94133307,0.203414444 C2.97324931,0.203414444 3.71834293,0.462539306 4.37241971,1.04060306 C5.14962544,1.72523083 5.60924828,2.75710722 5.60924828,3.82440972 C5.60924828,5.96457278 4.106958,7.45545625 1.95162798,7.45545625 Z"/>
      <polygon points="6.221 .203 7.55 .203 7.55 7.455 6.221 7.455"/>
      <path d="M10.7994775 4.67255861C10.0019699 4.98666667 9.76776622 5.19384708 9.76776622 5.58566403 9.76776622 6.04238556 10.1849796 6.38947833 10.7578245 6.38947833 11.1560536 6.38947833 11.4832994 6.21538653 11.8295783 5.8021425L12.5249176 6.77134792C11.953488 7.30336292 11.2697881 7.57537 10.5227668 7.57537 9.31729387 7.57537 8.39775537 6.68428903 8.39775537 5.49738444 8.39775537 4.49825903 8.82592494 3.98673611 10.0741245 3.5085875 10.5943602 3.31327639 10.8591387 3.18312958 10.9927846 3.09557722 11.2583439 2.91101861 11.3913066 2.64976403 11.3913066 2.34521375 11.3913066 1.75759222 10.952376 1.32224583 10.3594001 1.32224583 9.72552757 1.32224583 9.21493042 1.65967694 8.90896255 2.28950333L8.05032969 1.40959042C8.66265585.452903611 9.39803776.0289070833 10.4092519.0289070833 11.7904142.0289070833 12.7592189 1.00631972 12.7592189 2.41024819 12.7592189 3.56245389 12.3113087 4.08402806 10.7994775 4.67255861M13.1785064 3.82440972C13.1785064 1.69276556 14.7510724.0398673611 16.7748428.0398673611 17.3469313.0398673611 17.8368605.159599306 18.4410854.462539306L18.4410854 2.12769639C17.909796 1.56168375 17.439217 1.33341389 16.8366025 1.33341389 15.4981669 1.33341389 14.5481268 2.36630319 14.5481268 3.83485056 14.5481268 5.22722139 15.5281805 6.32556069 16.7748428 6.32556069 17.4087153 6.32556069 17.8885425 6.08479819 18.4410854 5.50956542L18.4410854 7.17391736C17.857748 7.48893444 17.3780185 7.61939292 16.8061985 7.61939292 14.7927254 7.61939292 13.1785064 5.9330425 13.1785064 3.82440972"/>
      <polyline points="28.979 2.584 27.162 7.455 25.71 7.455 28.601 .017 29.316 .017 32.26 7.455 30.819 7.455 28.979 2.584"/>
      <polyline points="32.861 .203 36.63 .203 36.63 1.431 34.189 1.431 34.189 3.389 36.54 3.389 36.54 4.617 34.189 4.617 34.189 6.227 36.63 6.227 36.63 7.455 32.861 7.455 32.861 .203"/>
      <path d="M39.2258179 4.11670111L38.8375933 4.11670111 38.8375933 6.31317194 39.246803 6.31317194C40.074495 6.31317194 40.524455 5.94408069 40.524455 5.23828556 40.524455 4.50921931 40.074495 4.11670111 39.2258179 4.11670111zM41.8921477 5.31446208C41.8921477 6.67213403 41.013457 7.45545625 39.4808115 7.45545625L37.5101627 7.45545625 37.5101627.203414444 38.8375933.203414444 38.8375933 3.11666667 39.0108425 3.11666667 40.8504563.203414444 42.4848552.203414444 40.3399812 3.25860486C41.3409224 3.47521319 41.8921477 4.20404569 41.8921477 5.31446208zM42.6556643 7.3526882L42.6073497 7.3526882 42.6073497 7.64015917 42.6585925 7.64015917C42.80012 7.64015917 42.8733239 7.59341264 42.8733239 7.49870946 42.8733239 7.40136195 42.7991439 7.3526882 42.6556643 7.3526882zM43.1593071 7.5027432C43.1593071 7.72208884 42.9948423 7.84202528 42.705931 7.84202528L42.3213665 7.84202528 42.3213665 6.74202528 42.6073497 6.74202528 42.6073497 7.16866016 42.9426236 6.74202528 43.2915621 6.74202528 42.8977252 7.19564138C43.0660941 7.23732333 43.1593071 7.35004386 43.1593071 7.5027432z"/>
      <path d="M42.5720367,6.60556722 C42.3292602,6.60556722 42.1307425,6.80828042 42.1307425,7.06119792 C42.1307425,7.31502444 42.3266719,7.51763375 42.5720367,7.51763375 C42.813519,7.51763375 43.0104837,7.31037542 43.0104837,7.06119792 C43.0104837,6.81041014 42.813519,6.60556722 42.5720367,6.60556722 Z M42.5741072,7.61767875 C42.2655896,7.61767875 42.0207425,7.37063097 42.0207425,7.06200306 C42.0207425,6.75358292 42.2684367,6.50624944 42.5741072,6.50624944 C42.8746014,6.50624944 43.1207425,6.75623208 43.1207425,7.06200306 C43.1207425,7.36626764 42.8746014,7.61767875 42.5741072,7.61767875 Z"/>
    </g>
    <g transform="translate(18.911 .13)">
      <path fill="url(#discover-loose-a)" d="M0.012957089,3.88082139 C0.012957089,3.88082139 0.012957089,3.88082139 0.012957089,3.88315889 C0.012957089,6.01256944 1.63583859,7.74003389 3.63654978,7.74003389 C5.63938389,7.74003389 7.26231419,6.01256944 7.26231419,3.88315889 C7.26231419,3.88082139 7.26231419,3.88082139 7.26231419,3.88082139 C7.26231419,1.75130694 5.63938389,0.0239463889 3.63654978,0.0239463889 C1.63583859,0.0239463889 0.012957089,1.75130694 0.012957089,3.88082139"/>
    </g>
  </g>
</svg>