<svg xmlns:xlink="http://www.w3.org/1999/xlink" xmlns="http://www.w3.org/2000/svg" viewBox="0 0 56 24" width="56"  height="24" ><g fill="none" fill-rule="evenodd"><path fill="#139AD6" d="M43.64 10.83c-.17 1.1-.97 1.1-1.77 1.1h-.54l.36-2.12c0-.09.09-.18.27-.18h.17c.54 0 1.07 0 1.34.37.17.09.17.36.17.83m-.35-3.04h-3.02c-.18 0-.36.18-.45.37l-1.24 8.1c0 .18.09.27.26.27h1.6c.18 0 .27-.09.27-.27l.36-2.3c0-.19.17-.37.44-.37h.98c2.04 0 3.2-1.02 3.47-3.04a2.5 2.5 0 0 0-.36-2.03 3.5 3.5 0 0 0-2.31-.73"/><path fill="#263B80" d="M28.62 13.68c-.18.83-.8 1.47-1.69 1.47-.44 0-.8-.18-.97-.37a2.02 2.02 0 0 1-.27-1.1c.09-.83.8-1.47 1.6-1.47.44 0 .71.18.98.36.26.28.35.74.35 1.11m2.05-2.95h-1.43c-.08 0-.26.1-.26.19l-.1.46-.08-.19c-.36-.46-.98-.64-1.69-.64-1.6 0-3.02 1.29-3.29 3.04-.18.92.1 1.75.54 2.3.44.55 1.06.74 1.86.74a2.8 2.8 0 0 0 2.05-.83l-.1.46c0 .18.1.27.27.27h1.34c.18 0 .35-.18.44-.36l.8-5.16c-.09-.1-.27-.28-.35-.28m-8.8.1c-.18 1.1-.98 1.1-1.78 1.1h-.45L20 9.81c0-.09.09-.18.27-.18h.17c.54 0 1.07 0 1.34.37.09.09.18.36.09.82M21.5 7.8h-3c-.18 0-.36.18-.45.37l-1.24 8.1c0 .18.09.27.27.27h1.42c.18 0 .35-.18.44-.36l.36-2.21c0-.19.18-.37.44-.37h.98c2.04 0 3.2-1.02 3.47-3.04.18-.83 0-1.57-.36-2.03a3.34 3.34 0 0 0-2.3-.73"/><path fill="#139AD6" d="M50.31 13.68c-.18.83-.8 1.47-1.69 1.47-.44 0-.8-.18-.98-.37a2.03 2.03 0 0 1-.26-1.1c.09-.83.8-1.47 1.6-1.47.44 0 .7.18.98.36.35.28.44.74.35 1.11m2.05-2.95h-1.43c-.09 0-.26.1-.26.19l-.1.46-.08-.19c-.36-.46-.98-.64-1.69-.64-1.6 0-3.02 1.29-3.29 3.04-.18.92.09 1.75.53 2.3.45.55 1.07.74 1.87.74a2.8 2.8 0 0 0 2.05-.83l-.1.46c0 .18.1.27.27.27h1.34c.17 0 .35-.18.44-.36l.8-5.16c-.09-.1-.18-.28-.35-.28"/><path fill="#263B80" d="M38.4 10.73h-1.51c-.18 0-.27.1-.36.19l-1.95 3.13-.9-2.95c-.08-.18-.17-.27-.44-.27h-1.42c-.18 0-.26.18-.26.36l1.6 4.88-1.52 2.21c-.08.19 0 .46.18.46h1.42c.18 0 .27-.09.36-.18l4.89-7.27c.26-.28.09-.56-.09-.56"/><path fill="#139AD6" d="m54.04 8.06-1.24 8.29c0 .18.09.28.27.28h1.24c.18 0 .36-.19.45-.37L56 8.16c0-.19-.09-.28-.27-.28h-1.42c-.09-.1-.18 0-.27.18"/><path d="M0 10.46V3.92h10.96V17H0z"/><path fill="#263B80" d="M10.22 5.03c-.62-.74-1.78-1.11-3.38-1.11H2.4c-.27 0-.53.28-.62.55L0 16.53c0 .28.18.46.36.46H3.1l.71-4.5v.18c.1-.28.36-.56.62-.56h1.34c2.58 0 4.53-1.1 5.15-4.14V7.7c-.09 0-.09 0 0 0 .1-1.2-.09-1.93-.7-2.66"/><path fill="#139AD6" d="M10.84 7.7v.27c-.62 3.13-2.57 4.14-5.15 4.14H4.36c-.27 0-.54.28-.63.56l-.89 5.61c0 .19.1.37.36.37h2.3c.27 0 .53-.18.53-.46v-.1l.45-2.85v-.18c0-.28.26-.46.53-.46h.36c2.22 0 4-.92 4.44-3.68.18-1.1.1-2.12-.44-2.76a.92.92 0 0 0-.54-.46"/><path fill="#232C65" d="M10.22 7.42c-.09 0-.18-.1-.26-.1-.1 0-.18 0-.27-.08-.36-.1-.71-.1-1.16-.1H5.07c-.1 0-.18 0-.27.1a.5.5 0 0 0-.27.46l-.7 4.78v.19c.08-.28.35-.56.61-.56h1.34c2.58 0 4.53-1.1 5.15-4.14 0-.09 0-.18.1-.27-.19-.1-.27-.19-.45-.19-.27-.1-.27-.1-.36-.1"/></g></svg>