<svg xmlns:xlink="http://www.w3.org/1999/xlink" xmlns="http://www.w3.org/2000/svg" width="36" height="24" fill="none"><path fill="#1A1F71" fill-rule="evenodd" d="m7.418 14.673 2.823-7.423 2.965.14-4.519 10.784H5.724L3.184 8.65c.116.062.23.127.343.193-1-.641-2.123-1.1-3.309-1.314v-.28h4.66c.563 0 1.129.421 1.269.98l.99 4.902-.003-.007.002.007.282 1.542ZM30.85 11.17s-.847 2.521-1.13 3.081h2.4c-.142-.56-.705-3.08-.705-3.08l-.143-.981c-.14.419-.422.98-.422.98Zm.141-3.921h2.259l2.257 10.782h-2.823s-.14-1.259-.281-1.679h-3.67c-.142.279-.565 1.68-.565 1.68h-2.964l4.234-9.943c.283-.561.847-.982 1.553-.84Zm-7.622-.142c.845 0 1.694.142 2.54.42l-.423 2.381h-.141a5.7 5.7 0 0 0-2.117-.418c-1.131 0-1.694.56-1.694.98 0 .523.493.802 1.368 1.296l.184.104c1.694.7 2.4 1.681 2.4 2.94 0 2.242-1.977 3.643-4.94 3.643-1.13 0-2.259-.142-3.247-.56l.424-2.382.423.14c.847.421 1.694.56 2.682.56.706.141 1.553-.419 1.694-1.12.141-.56-.282-.84-1.412-1.4-1.411-.42-2.4-1.54-2.542-2.94 0-2.243 1.978-3.644 4.8-3.644Zm-8.893.282-1.835 10.784h2.823L17.299 7.39h-2.823Z" clip-rule="evenodd"/></svg>